<svg width="24" height="24" viewBox="0 0 24 24" fill="none" xmlns="http://www.w3.org/2000/svg">
<path d="M9.26667 14.5464H14.2114M6.21595 17.8038H17.2621M6.86309 0.7995V2.93741M6.86309 4.23222V2.93741M16.6147 0.7995V2.93741M16.6147 4.23222V2.93741M21.8675 8.7263V4.17361C21.8675 3.48919 21.3103 2.93741 20.6312 2.93741H16.6147M21.8675 8.7263V21.9633C21.8675 22.6477 21.3157 23.1995 20.6312 23.1995H2.83622C2.15711 23.1995 1.59998 22.6477 1.59998 21.9633V8.7263M21.8675 8.7263H1.59998M1.59998 8.7263V4.16831C1.59998 3.48919 2.1518 2.9321 2.83622 2.9321L6.86309 2.93741M6.86309 2.93741H16.6147" stroke="#111111" stroke-width="1.2" stroke-linecap="round" stroke-linejoin="round"/>
</svg>
