<svg width="65" height="65" viewBox="0 0 65 65" fill="none" xmlns="http://www.w3.org/2000/svg">
<path d="M52.1207 7.59991H57.4662C59.3563 7.59991 60.9068 9.11239 60.9068 10.9884V23.4677M60.9068 23.4677V59.7512C60.9068 61.6273 59.371 63.1397 57.4662 63.1397H7.94062C6.05056 63.1397 4.5 61.6273 4.5 59.7512V10.9739C4.5 9.11238 6.03579 7.58537 7.94062 7.58537H13.2566M60.9068 23.4677H4.52956M60.9068 23.4677H60.9216M25.099 7.60099H40.4408M19.1479 1.73975V11.1491M46.2878 1.73975V11.1491M32.7108 53.8345V43.4153M32.7108 43.4153V32.9961M32.7108 43.4153H22.1318M32.7108 43.4153H43.2899" stroke="#585B5E" stroke-width="2.6" stroke-linecap="round" stroke-linejoin="round"/>
</svg>
