<svg width="18" height="19" viewBox="0 0 18 19" fill="none" xmlns="http://www.w3.org/2000/svg">
<path fill-rule="evenodd" clip-rule="evenodd" d="M9 17.3C13.3078 17.3 16.8 13.8078 16.8 9.5C16.8 5.19218 13.3078 1.7 9 1.7C4.69218 1.7 1.2 5.19218 1.2 9.5C1.2 13.8078 4.69218 17.3 9 17.3ZM9 18.5C13.9706 18.5 18 14.4706 18 9.5C18 4.52944 13.9706 0.5 9 0.5C4.02944 0.5 0 4.52944 0 9.5C0 14.4706 4.02944 18.5 9 18.5Z" fill="#111111"/>
<path fill-rule="evenodd" clip-rule="evenodd" d="M9 6.275C9.33137 6.275 9.6 6.54363 9.6 6.875V14.75C9.6 15.0814 9.33137 15.35 9 15.35C8.66863 15.35 8.4 15.0814 8.4 14.75V6.875C8.4 6.54363 8.66863 6.275 9 6.275Z" fill="#111111"/>
<path d="M9.75 4.47485C9.75 4.88907 9.41421 5.22485 9 5.22485C8.58579 5.22485 8.25 4.88907 8.25 4.47485C8.25 4.06064 8.58579 3.72485 9 3.72485C9.41421 3.72485 9.75 4.06064 9.75 4.47485Z" fill="#111111"/>
</svg>
