<svg width="24" height="24" viewBox="0 0 24 24" fill="none" xmlns="http://www.w3.org/2000/svg">
<path d="M15.96 11.28C18.147 11.28 19.92 9.50703 19.92 7.31999C19.92 5.13294 18.147 3.35999 15.96 3.35999C14.1141 3.35999 12.5632 4.62295 12.1243 6.3319M15.96 11.28C19.6051 11.28 22.56 14.2349 22.56 17.88M15.96 11.28C15.9184 11.28 15.877 11.2793 15.8357 11.2781M8.04 11.28C5.85295 11.28 4.08 9.50703 4.08 7.31999C4.08 5.13294 5.85295 3.35999 8.04 3.35999C9.88589 3.35999 11.4368 4.62295 11.8757 6.3319M8.04 11.28C4.39492 11.28 1.44 14.2349 1.44 17.88M8.04 11.28C8.08158 11.28 8.123 11.2793 8.16427 11.2781M8.04 11.28C8.08178 11.28 8.12347 11.2804 8.16506 11.2811M12 14.25C15.6451 14.25 18.6 17.2049 18.6 20.85M12 14.25C8.35492 14.25 5.4 17.2049 5.4 20.85M12 14.25C10.1552 14.25 8.60506 12.9885 8.16506 11.2811M12 14.25C13.8459 14.25 15.3968 12.987 15.8357 11.2781M12.1243 6.3319C14.2538 6.39754 15.96 8.14451 15.96 10.29C15.96 10.6311 15.9169 10.9622 15.8357 11.2781M12.1243 6.3319C12.083 6.33063 12.0416 6.32999 12 6.32999C11.9584 6.32999 11.917 6.33063 11.8757 6.3319M11.8757 6.3319C9.74619 6.39754 8.04 8.14451 8.04 10.29C8.04 10.6311 8.08314 10.9622 8.16427 11.2781M8.16427 11.2781C8.16453 11.2791 8.16479 11.2801 8.16506 11.2811" stroke="#111111" stroke-width="1.4" stroke-linecap="round" stroke-linejoin="round"/>
</svg>
